<?xml version="1.0" encoding="UTF-8" standalone="no"?>
<!DOCTYPE svg PUBLIC "-//W3C//DTD SVG 1.1//EN" "http://www.w3.org/Graphics/SVG/1.1/DTD/svg11.dtd">
<!-- Generated by graphviz version 2.28.0 (20110705.1713)
 -->
<!-- Title: G Pages: 1 -->
<svg xmlns="http://www.w3.org/2000/svg" xmlns:xlink="http://www.w3.org/1999/xlink" width="132pt" height="204pt">
<g id="viewport" class="graph" transform="scale(1 1) rotate(0) translate(4 200)">
<title>G</title>
<polygon fill="white" stroke="white" points="-4,5 -4,-200 129,-200 129,5 -4,5"/>
<g id="graph2" class="cluster"><title>cluster_default</title>
<polyline fill="none" stroke="gray" points="20,-8 104,-8 "/>
<path fill="none" stroke="gray" d="M104,-8C110,-8 116,-14 116,-20"/>
<polyline fill="none" stroke="gray" points="116,-20 116,-176 "/>
<path fill="none" stroke="gray" d="M116,-176C116,-182 110,-188 104,-188"/>
<polyline fill="none" stroke="gray" points="104,-188 20,-188 "/>
<path fill="none" stroke="gray" d="M20,-188C14,-188 8,-182 8,-176"/>
<polyline fill="none" stroke="gray" points="8,-176 8,-20 "/>
<path fill="none" stroke="gray" d="M8,-20C8,-14 14,-8 20,-8"/>
<text text-anchor="middle" x="62" y="-175.2" font-family="Times,serif" font-size="11.00" fill="gray">default</text>
</g>
<!-- _fiHooks -->
<g id="node2" class="node"><title>_fiHooks</title>
<a xlink:href="_fihooks.class.html" xlink:title="fiHooks" target="_parent">
<polygon fill="none" stroke="black" points="94,-160 30,-160 30,-124 94,-124 94,-160"/>
<text text-anchor="middle" x="62" y="-139.2" font-family="Courier New" font-size="11.00">fiHooks</text>
</a>
</g>
<!-- _fiValidator -->
<g id="node3" class="node"><title>_fiValidator</title>
<a xlink:href="_fivalidator.class.html" xlink:title="fiValidator" target="_parent">
<polygon fill="none" stroke="black" points="107.5,-106 16.5,-106 16.5,-70 107.5,-70 107.5,-106"/>
<text text-anchor="middle" x="62" y="-85.2" font-family="Courier New" font-size="11.00">fiValidator</text>
</a>
</g>
<!-- _FormIt -->
<g id="node4" class="node"><title>_FormIt</title>
<a xlink:href="_formit.class.html" xlink:title="FormIt" target="_parent">
<polygon fill="none" stroke="black" points="90.5,-52 33.5,-52 33.5,-16 90.5,-16 90.5,-52"/>
<text text-anchor="middle" x="62" y="-31.2" font-family="Courier New" font-size="11.00">FormIt</text>
</a>
</g>
</g>
<script xlink:href="js/SVGPan.js"/></svg>
