<?xml version="1.0" encoding="UTF-8" standalone="no"?>
<!DOCTYPE svg PUBLIC "-//W3C//DTD SVG 1.1//EN" "http://www.w3.org/Graphics/SVG/1.1/DTD/svg11.dtd">
<!-- Generated by graphviz version 2.28.0 (20110705.1713)
 -->
<!-- Title: G Pages: 1 -->
<svg xmlns="http://www.w3.org/2000/svg" xmlns:xlink="http://www.w3.org/1999/xlink" width="138pt" height="312pt">
<g id="viewport" class="graph" transform="scale(1 1) rotate(0) translate(4 308)">
<title>G</title>
<polygon fill="white" stroke="white" points="-4,5 -4,-308 135,-308 135,5 -4,5"/>
<g id="graph2" class="cluster"><title>cluster_default</title>
<polyline fill="none" stroke="gray" points="20,-8 110,-8 "/>
<path fill="none" stroke="gray" d="M110,-8C116,-8 122,-14 122,-20"/>
<polyline fill="none" stroke="gray" points="122,-20 122,-284 "/>
<path fill="none" stroke="gray" d="M122,-284C122,-290 116,-296 110,-296"/>
<polyline fill="none" stroke="gray" points="110,-296 20,-296 "/>
<path fill="none" stroke="gray" d="M20,-296C14,-296 8,-290 8,-284"/>
<polyline fill="none" stroke="gray" points="8,-284 8,-20 "/>
<path fill="none" stroke="gray" d="M8,-20C8,-14 14,-8 20,-8"/>
<text text-anchor="middle" x="65" y="-283.2" font-family="Times,serif" font-size="11.00" fill="gray">default</text>
</g>
<!-- _fiDictionary -->
<g id="node2" class="node"><title>_fiDictionary</title>
<a xlink:href="_fidictionary.class.html" xlink:title="fiDictionary" target="_parent">
<polygon fill="none" stroke="black" points="114,-268 16,-268 16,-232 114,-232 114,-268"/>
<text text-anchor="middle" x="65" y="-247.2" font-family="Courier New" font-size="11.00">fiDictionary</text>
</a>
</g>
<!-- _fiHooks -->
<g id="node3" class="node"><title>_fiHooks</title>
<a xlink:href="_fihooks.class.html" xlink:title="fiHooks" target="_parent">
<polygon fill="none" stroke="black" points="97,-214 33,-214 33,-178 97,-178 97,-214"/>
<text text-anchor="middle" x="65" y="-193.2" font-family="Courier New" font-size="11.00">fiHooks</text>
</a>
</g>
<!-- _fiRequest -->
<g id="node4" class="node"><title>_fiRequest</title>
<a xlink:href="_firequest.class.html" xlink:title="fiRequest" target="_parent">
<polygon fill="none" stroke="black" points="103.5,-160 26.5,-160 26.5,-124 103.5,-124 103.5,-160"/>
<text text-anchor="middle" x="65" y="-139.2" font-family="Courier New" font-size="11.00">fiRequest</text>
</a>
</g>
<!-- _fiValidator -->
<g id="node5" class="node"><title>_fiValidator</title>
<a xlink:href="_fivalidator.class.html" xlink:title="fiValidator" target="_parent">
<polygon fill="none" stroke="black" points="110.5,-106 19.5,-106 19.5,-70 110.5,-70 110.5,-106"/>
<text text-anchor="middle" x="65" y="-85.2" font-family="Courier New" font-size="11.00">fiValidator</text>
</a>
</g>
<!-- _FormIt -->
<g id="node6" class="node"><title>_FormIt</title>
<a xlink:href="_formit.class.html" xlink:title="FormIt" target="_parent">
<polygon fill="none" stroke="black" points="93.5,-52 36.5,-52 36.5,-16 93.5,-16 93.5,-52"/>
<text text-anchor="middle" x="65" y="-31.2" font-family="Courier New" font-size="11.00">FormIt</text>
</a>
</g>
</g>
<script xlink:href="js/SVGPan.js"/></svg>
