<?xml version="1.0" encoding="UTF-8" standalone="no"?>
<!DOCTYPE svg PUBLIC "-//W3C//DTD SVG 1.1//EN" "http://www.w3.org/Graphics/SVG/1.1/DTD/svg11.dtd">
<!-- Generated by graphviz version 2.28.0 (20110705.1713)
 -->
<!-- Title: G Pages: 1 -->
<svg xmlns="http://www.w3.org/2000/svg" xmlns:xlink="http://www.w3.org/1999/xlink" width="316pt" height="420pt">
<g id="viewport" class="graph" transform="scale(1 1) rotate(0) translate(4 416)">
<title>G</title>
<polygon fill="white" stroke="white" points="-4,5 -4,-416 313,-416 313,5 -4,5"/>
<g id="graph2" class="cluster"><title>cluster_default</title>
<polyline fill="none" stroke="gray" points="20,-8 288,-8 "/>
<path fill="none" stroke="gray" d="M288,-8C294,-8 300,-14 300,-20"/>
<polyline fill="none" stroke="gray" points="300,-20 300,-392 "/>
<path fill="none" stroke="gray" d="M300,-392C300,-398 294,-404 288,-404"/>
<polyline fill="none" stroke="gray" points="288,-404 20,-404 "/>
<path fill="none" stroke="gray" d="M20,-404C14,-404 8,-398 8,-392"/>
<polyline fill="none" stroke="gray" points="8,-392 8,-20 "/>
<path fill="none" stroke="gray" d="M8,-20C8,-14 14,-8 20,-8"/>
<text text-anchor="middle" x="154" y="-391.2" font-family="Times,serif" font-size="11.00" fill="gray">default</text>
</g>
<!-- _fiDictionary -->
<g id="node2" class="node"><title>_fiDictionary</title>
<a xlink:href="db_fidictionary.class.html" xlink:title="fiDictionary" target="_parent">
<polygon fill="none" stroke="black" points="278,-376 180,-376 180,-340 278,-340 278,-376"/>
<text text-anchor="middle" x="229" y="-355.2" font-family="Courier New" font-size="11.00">fiDictionary</text>
</a>
</g>
<!-- _fiHooks -->
<g id="node3" class="node"><title>_fiHooks</title>
<a xlink:href="db_fihooks.class.html" xlink:title="fiHooks" target="_parent">
<polygon fill="none" stroke="black" points="261,-322 197,-322 197,-286 261,-286 261,-322"/>
<text text-anchor="middle" x="229" y="-301.2" font-family="Courier New" font-size="11.00">fiHooks</text>
</a>
</g>
<!-- _fiRequest -->
<g id="node4" class="node"><title>_fiRequest</title>
<a xlink:href="db_firequest.class.html" xlink:title="fiRequest" target="_parent">
<polygon fill="none" stroke="black" points="267.5,-268 190.5,-268 190.5,-232 267.5,-232 267.5,-268"/>
<text text-anchor="middle" x="229" y="-247.2" font-family="Courier New" font-size="11.00">fiRequest</text>
</a>
</g>
<!-- _fiValidator -->
<g id="node5" class="node"><title>_fiValidator</title>
<a xlink:href="db_fivalidator.class.html" xlink:title="fiValidator" target="_parent">
<polygon fill="none" stroke="black" points="274.5,-214 183.5,-214 183.5,-178 274.5,-178 274.5,-214"/>
<text text-anchor="middle" x="229" y="-193.2" font-family="Courier New" font-size="11.00">fiValidator</text>
</a>
</g>
<!-- _FormIt -->
<g id="node6" class="node"><title>_FormIt</title>
<a xlink:href="db_formit.class.html" xlink:title="FormIt" target="_parent">
<polygon fill="none" stroke="black" points="257.5,-160 200.5,-160 200.5,-124 257.5,-124 257.5,-160"/>
<text text-anchor="middle" x="229" y="-139.2" font-family="Courier New" font-size="11.00">FormIt</text>
</a>
</g>
<!-- _fiCountryOptions -->
<g id="node7" class="node"><title>_fiCountryOptions</title>
<a xlink:href="db_module_ficountryoptions.class.html" xlink:title="fiCountryOptions" target="_parent">
<polygon fill="none" stroke="black" points="291.5,-106 166.5,-106 166.5,-70 291.5,-70 291.5,-106"/>
<text text-anchor="middle" x="229" y="-85.2" font-family="Courier New" font-size="11.00">fiCountryOptions</text>
</a>
</g>
<!-- _fiModule -->
<g id="node8" class="node"><title>_fiModule</title>
<a xlink:href="db_module_fimodule.class.html" xlink:title="&lt;I&gt;_fiModule&lt;/I&gt;" target="_parent">
<polygon fill="none" stroke="black" points="94,-79 16,-79 16,-43 94,-43 94,-79"/>
<text text-anchor="start" x="24.5" y="-59.2" font-family="Courier New" font-size="11.00">_fiModule</text>
</a>
</g>
<!-- _fiCountryOptions&#45;&gt;_fiModule -->
<g id="edge3" class="edge"><title>_fiCountryOptions-&gt;_fiModule</title>
<path fill="none" stroke="black" d="M166.39,-78.3286C145.963,-75.1221 123.534,-71.6013 104.26,-68.5757"/>
<polygon fill="none" stroke="black" points="104.626,-65.0904 94.2041,-66.9972 103.54,-72.0057 104.626,-65.0904"/>
</g>
<!-- _fiStateOptions -->
<g id="node9" class="node"><title>_fiStateOptions</title>
<a xlink:href="db_module_fistateoptions.class.html" xlink:title="fiStateOptions" target="_parent">
<polygon fill="none" stroke="black" points="284.5,-52 173.5,-52 173.5,-16 284.5,-16 284.5,-52"/>
<text text-anchor="middle" x="229" y="-31.2" font-family="Courier New" font-size="11.00">fiStateOptions</text>
</a>
</g>
<!-- _fiStateOptions&#45;&gt;_fiModule -->
<g id="edge5" class="edge"><title>_fiStateOptions-&gt;_fiModule</title>
<path fill="none" stroke="black" d="M173.105,-42.6172C150.969,-46.0921 125.655,-50.0657 104.24,-53.4275"/>
<polygon fill="none" stroke="black" points="103.407,-50.0153 94.0707,-55.0238 104.492,-56.9306 103.407,-50.0153"/>
</g>
</g>
<script xlink:href="js/SVGPan.js"/></svg>
